<svg width="21" height="26" viewBox="0 0 21 26" fill="none" xmlns="http://www.w3.org/2000/svg">
<path fill-rule="evenodd" clip-rule="evenodd" d="M10.4998 25.2515L11.4613 24.168C12.5524 22.9185 13.5337 21.733 14.4068 20.6054L15.1276 19.6545C18.1371 15.5997 19.6426 12.3814 19.6426 10.0027C19.6426 4.92538 15.5497 0.80957 10.4998 0.80957C5.44989 0.80957 1.35693 4.92538 1.35693 10.0027C1.35693 12.3814 2.86246 15.5997 5.87198 19.6545L6.59274 20.6054C7.83836 22.2014 9.14157 23.7516 10.4998 25.253V25.2515Z" stroke="#333333" stroke-linecap="round" stroke-linejoin="round"/>
<path d="M10.5 13.762C12.6039 13.762 14.3095 12.0564 14.3095 9.95247C14.3095 7.84853 12.6039 6.14294 10.5 6.14294C8.39601 6.14294 6.69043 7.84853 6.69043 9.95247C6.69043 12.0564 8.39601 13.762 10.5 13.762Z" stroke="#333333" stroke-linecap="round" stroke-linejoin="round"/>
</svg>
