<svg width="24" height="24" viewBox="0 0 24 24" fill="none" xmlns="http://www.w3.org/2000/svg">
<path d="M12 8.0007C12.2336 8.00024 12.4601 8.08162 12.64 8.2307L18.64 13.2307C18.8442 13.4004 18.9726 13.6444 18.997 13.9088C19.0214 14.1732 18.9397 14.4365 18.77 14.6407C18.6002 14.8449 18.3563 14.9733 18.0919 14.9977C17.8275 15.0221 17.5642 14.9404 17.36 14.7707L12 10.2907L6.63997 14.6107C6.53768 14.6938 6.41998 14.7558 6.29364 14.7932C6.16731 14.8307 6.03481 14.8428 5.90379 14.8288C5.77276 14.8149 5.64578 14.7752 5.53014 14.712C5.4145 14.6488 5.31249 14.5634 5.22997 14.4607C5.13839 14.3579 5.06903 14.2373 5.02624 14.1064C4.98344 13.9755 4.96814 13.8372 4.98128 13.7001C4.99443 13.5631 5.03573 13.4302 5.10262 13.3098C5.1695 13.1895 5.26052 13.0842 5.36997 13.0007L11.37 8.1707C11.5551 8.04519 11.7769 7.98533 12 8.0007Z" fill="black"/>
</svg>
