<svg width="24" height="24" viewBox="0 0 24 24" fill="none" xmlns="http://www.w3.org/2000/svg">
<path d="M12 15.9993C11.7664 15.9998 11.5399 15.9184 11.36 15.7693L5.36003 10.7693C5.15581 10.5996 5.02739 10.3556 5.00301 10.0912C4.97863 9.8268 5.06029 9.56352 5.23003 9.3593C5.39977 9.15508 5.64368 9.02666 5.90811 9.00228C6.17253 8.9779 6.43581 9.05956 6.64003 9.2293L12 13.7093L17.36 9.3893C17.4623 9.30623 17.58 9.2442 17.7064 9.20677C17.8327 9.16934 17.9652 9.15724 18.0962 9.17118C18.2272 9.18512 18.3542 9.22482 18.4699 9.28799C18.5855 9.35117 18.6875 9.43657 18.77 9.5393C18.8616 9.64212 18.931 9.76275 18.9738 9.89362C19.0166 10.0245 19.0319 10.1628 19.0187 10.2999C19.0056 10.4369 18.9643 10.5698 18.8974 10.6902C18.8305 10.8105 18.7395 10.9158 18.63 10.9993L12.63 15.8293C12.4449 15.9548 12.2231 16.0147 12 15.9993Z" fill="black"/>
</svg>
