<svg width="21" height="23" viewBox="0 0 21 23" fill="none" xmlns="http://www.w3.org/2000/svg">
<path d="M1.84988 9.23196C1.89212 8.7057 2.13102 8.21466 2.51902 7.85663C2.90702 7.4986 3.41563 7.29985 3.94358 7.29996H16.6045C17.1324 7.29985 17.641 7.4986 18.029 7.85663C18.417 8.21466 18.6559 8.7057 18.6982 9.23196L19.5413 19.732C19.5645 20.0209 19.5276 20.3115 19.433 20.5855C19.3384 20.8595 19.188 21.111 18.9914 21.324C18.7949 21.5371 18.5563 21.7071 18.2908 21.8234C18.0253 21.9398 17.7386 21.9999 17.4487 22H3.09938C2.8095 21.9999 2.52277 21.9398 2.25726 21.8234C1.99174 21.7071 1.75319 21.5371 1.55661 21.324C1.36004 21.111 1.2097 20.8595 1.11506 20.5855C1.02042 20.3115 0.98354 20.0209 1.00673 19.732L1.84988 9.23196V9.23196Z" stroke="black" stroke-width="2" stroke-linecap="round" stroke-linejoin="round"/>
<path d="M14.4741 10.45V5.19997C14.4741 4.08606 14.0316 3.01777 13.2439 2.23012C12.4563 1.44247 11.388 0.999969 10.2741 0.999969C9.16019 0.999969 8.0919 1.44247 7.30425 2.23012C6.5166 3.01777 6.0741 4.08606 6.0741 5.19997V10.45" stroke="black" stroke-width="2" stroke-linecap="round" stroke-linejoin="round"/>
</svg>
