<svg width="20" height="20" viewBox="0 0 20 20" fill="none" xmlns="http://www.w3.org/2000/svg">
<path fill-rule="evenodd" clip-rule="evenodd" d="M19.3377 9.7875C17.8352 5.90106 14.164 3.28158 10.0002 3.125C5.83641 3.28158 2.1652 5.90106 0.662722 9.7875C0.613077 9.92482 0.613077 10.0752 0.662722 10.2125C2.1652 14.0989 5.83641 16.7184 10.0002 16.875C14.164 16.7184 17.8352 14.0989 19.3377 10.2125C19.3874 10.0752 19.3874 9.92482 19.3377 9.7875ZM6.25 10C6.25 7.92893 7.92893 6.25 10 6.25C12.0711 6.25 13.75 7.92893 13.75 10C13.75 12.0711 12.0711 13.75 10 13.75C7.92893 13.75 6.25 12.0711 6.25 10ZM7.5 10C7.5 11.3807 8.61929 12.5 10 12.5C10.663 12.5 11.2989 12.2366 11.7678 11.7678C12.2366 11.2989 12.5 10.663 12.5 10C12.5 8.61929 11.3807 7.5 10 7.5C8.61929 7.5 7.5 8.61929 7.5 10ZM1.91897 10C3.18772 13.1687 6.68772 15.625 10.0002 15.625C13.3127 15.625 16.8127 13.1687 18.0815 10C16.8127 6.83125 13.3127 4.375 10.0002 4.375C6.68772 4.375 3.18772 6.83125 1.91897 10Z" fill="#333333"/>
</svg>
