<svg width="16" height="16" viewBox="0 0 16 16" fill="none" xmlns="http://www.w3.org/2000/svg">
<path d="M2.22499 0.811962C2.03639 0.629804 1.78378 0.529009 1.52159 0.531288C1.25939 0.533566 1.00858 0.638735 0.823169 0.824144C0.637761 1.00955 0.532592 1.26036 0.530314 1.52256C0.528035 1.78476 0.628829 2.03736 0.810988 2.22596L6.58599 8.00096L0.809988 13.776C0.714477 13.8682 0.638295 13.9786 0.585886 14.1006C0.533477 14.2226 0.505891 14.3538 0.504737 14.4866C0.503584 14.6193 0.528885 14.751 0.579166 14.8739C0.629447 14.9968 0.7037 15.1085 0.797593 15.2024C0.891485 15.2962 1.00314 15.3705 1.12603 15.4208C1.24893 15.4711 1.38061 15.4964 1.51339 15.4952C1.64617 15.4941 1.77739 15.4665 1.89939 15.4141C2.0214 15.3617 2.13174 15.2855 2.22399 15.19L7.99999 9.41496L13.775 15.19C13.9636 15.3721 14.2162 15.4729 14.4784 15.4706C14.7406 15.4684 14.9914 15.3632 15.1768 15.1778C15.3622 14.9924 15.4674 14.7416 15.4697 14.4794C15.4719 14.2172 15.3711 13.9646 15.189 13.776L9.41399 8.00096L15.189 2.22596C15.3711 2.03736 15.4719 1.78476 15.4697 1.52256C15.4674 1.26036 15.3622 1.00955 15.1768 0.824144C14.9914 0.638735 14.7406 0.533566 14.4784 0.531288C14.2162 0.529009 13.9636 0.629804 13.775 0.811962L7.99999 6.58696L2.22499 0.810962V0.811962Z" fill="black"/>
</svg>
