<svg width="60" height="43" viewBox="0 0 60 43" fill="none"
                                xmlns="http://www.w3.org/2000/svg">
                                <path
                                    d="M59.845 25.8861L56.8079 21.2393C55.4668 19.1859 53.1883 17.9597 50.7115 17.9597H42.857V13.4399C42.857 10.6802 40.6129 8.43608 37.8532 8.43608H23.1498C22.3247 4.12711 18.5318 0.85791 13.9858 0.85791C8.83811 0.85791 4.65066 5.0459 4.65066 10.193C4.65066 13.4295 6.30787 16.2845 8.81685 17.9597H0.952584C0.426156 17.9597 0 18.3859 0 18.9123C0 19.4388 0.426156 19.8649 0.952584 19.8649H10.4762V21.7695H6.66646C6.14057 21.7695 5.71442 22.1957 5.71442 22.7221C5.71442 23.2485 6.14057 23.6742 6.66646 23.6742H10.4762V25.5788H0.952584C0.426156 25.5788 0 26.0049 0 26.5314C0 27.0578 0.426156 27.4839 0.952584 27.4839H10.4762V31.7019C8.79724 32.4425 7.61904 34.1177 7.61904 36.0676V37.0076C7.61904 37.534 8.04574 37.9602 8.57162 37.9602H17.0185C17.5601 40.2904 19.6495 42.0343 22.1427 42.0343C24.6364 42.0343 26.7252 40.2904 27.2669 37.9602H45.59C46.1322 40.2904 48.2216 42.0343 50.7142 42.0343C53.2068 42.0343 55.2968 40.2904 55.8384 37.9602H59.0477C59.5741 37.9602 59.9997 37.534 59.9997 37.0076V26.4071C59.9997 26.2218 59.9458 26.0404 59.845 25.8861ZM6.55528 10.193C6.55528 6.09603 9.88878 2.76253 13.9858 2.76253C18.0833 2.76253 21.4163 6.09603 21.4163 10.193C21.4163 14.29 18.0833 17.6235 13.9858 17.6235C9.88878 17.6235 6.55528 14.29 6.55528 10.193ZM12.3809 27.4839H14.2855C14.8119 27.4839 15.2381 27.0578 15.2381 26.5314C15.2381 26.0049 14.8119 25.5788 14.2855 25.5788H12.3809V23.6742H19.0479C19.5738 23.6742 19.9999 23.2485 19.9999 22.7221C19.9999 22.1957 19.5738 21.7695 19.0479 21.7695H12.3809V19.8649H24.7617C25.2876 19.8649 25.7143 19.4388 25.7143 18.9123C25.7143 18.3859 25.2876 17.9597 24.7617 17.9597H19.1547C21.625 16.3102 23.2637 13.5156 23.3138 10.3407H37.8538C39.5622 10.3407 40.9524 11.7314 40.9524 13.4399V31.2932H12.3929C12.389 31.2932 12.3852 31.2943 12.3809 31.2943V27.4839ZM40.9524 36.055H27.3536C27.2037 34.9597 26.7176 33.9722 25.9999 33.1978H40.9524V36.055ZM12.3929 33.1978H18.2855C17.5683 33.9722 17.0817 34.9597 16.9324 36.055H9.52366C9.5302 34.479 10.8152 33.1978 12.3929 33.1978ZM22.1427 40.1297C20.2904 40.1297 18.7825 38.6223 18.7825 36.7695C18.7825 34.9172 20.2904 33.4093 22.1427 33.4093C23.9955 33.4093 25.5029 34.9172 25.5029 36.7695C25.5029 38.6223 23.9955 40.1297 22.1427 40.1297ZM50.7142 40.1297C48.8619 40.1297 47.354 38.6223 47.354 36.7695C47.354 34.9172 48.8619 33.4093 50.7142 33.4093C52.5671 33.4093 54.0744 34.9172 54.0744 36.7695C54.0744 38.6223 52.5671 40.1297 50.7142 40.1297ZM58.0951 36.055H55.9251C55.5747 33.4899 53.3741 31.5046 50.7142 31.5046C48.0543 31.5046 45.8543 33.4899 45.5033 36.055H42.857V19.8649H50.7115C52.542 19.8649 54.2254 20.7679 55.2139 22.2807L58.0951 26.6905V36.055Z"
                                    fill="#333333" />
                            </svg>
