<svg width="17" height="16" viewBox="0 0 17 16" fill="none" xmlns="http://www.w3.org/2000/svg">
<path fill-rule="evenodd" clip-rule="evenodd" d="M16.542 11.3747C16.542 11.3747 9.84097 6.95269 9.57897 6.84569V5.95969C10.406 5.72669 10.959 4.95469 10.959 4.04469C10.959 2.94669 10.074 2.05469 8.98797 2.05469C8.46318 2.05813 7.96117 2.26956 7.59205 2.64261C7.22294 3.01567 7.01684 3.51989 7.01897 4.04469C7.01897 4.33769 7.25597 4.57369 7.54997 4.57369C7.84297 4.57369 7.97597 4.23169 7.97597 3.93869C7.97597 3.42669 8.52097 2.95769 9.01997 2.95769C9.51997 2.95769 10.041 3.53269 10.041 4.04469C10.041 4.55569 9.48697 4.97269 8.98697 4.97269C8.69297 4.97269 8.51397 5.20969 8.51397 5.50169V6.82369C8.31597 6.89669 1.51897 11.3747 1.51897 11.3747C1.01597 11.8877 0.33097 13.9567 2.72497 13.9567H15.306C17.5 13.9567 17.023 11.8627 16.542 11.3747ZM15.557 13.0207H2.45597C1.78497 13.0207 1.80397 12.2647 2.10897 11.9347L8.45797 7.91869C8.80097 7.73669 9.23197 7.71269 9.57097 7.91469L15.941 11.9357C16.248 12.2657 16.172 13.0207 15.557 13.0207Z" fill="#333333"/>
</svg>
