<svg width="24" height="21" viewBox="0 0 24 21" fill="none" xmlns="http://www.w3.org/2000/svg">
<path d="M11.6392 21C11.4785 20.9995 11.3224 20.9458 11.1954 20.8472C7.15015 17.7041 4.36356 14.9976 2.41368 12.3274C-0.0745991 8.9151 -0.642102 5.76473 0.725725 2.9636C1.70067 0.962789 4.5018 -0.674238 7.77586 0.278875C9.33688 0.729777 10.6988 1.69675 11.6392 3.0218C12.5796 1.69675 13.9416 0.729777 15.5026 0.278875C18.7694 -0.659687 21.5778 0.962789 22.5528 2.9636C23.9206 5.76473 23.3531 8.9151 20.8648 12.3274C18.9149 14.9976 16.1283 17.7041 12.0831 20.8472C11.9561 20.9458 11.8 20.9995 11.6392 21ZM5.91328 1.46481C5.13424 1.43449 4.36165 1.61691 3.67845 1.99248C2.99524 2.36805 2.42722 2.92259 2.03535 3.59658C0.907617 5.91025 1.41691 8.48584 3.59234 11.4616C5.90424 14.4436 8.6114 17.0969 11.6392 19.3484C14.6666 17.0991 17.3737 14.4483 19.6861 11.4689C21.8688 8.48584 22.3709 5.91025 21.2431 3.60386C20.5156 2.14872 18.3329 0.991891 15.9028 1.6758C15.1236 1.90608 14.4012 2.29694 13.7822 2.82323C13.1632 3.34953 12.6612 3.99959 12.3086 4.73159C12.2538 4.86503 12.1605 4.97917 12.0407 5.05949C11.9209 5.13982 11.7799 5.1827 11.6356 5.1827C11.4913 5.1827 11.3503 5.13982 11.2305 5.05949C11.1107 4.97917 11.0174 4.86503 10.9626 4.73159C10.6126 3.99776 10.1115 3.34618 9.49211 2.81956C8.8727 2.29294 8.14899 1.90317 7.36842 1.6758C6.89548 1.53844 6.40576 1.46743 5.91328 1.46481Z" fill="#333333"/>
</svg>
