<svg width="21" height="23" viewBox="0 0 21 23" fill="none" xmlns="http://www.w3.org/2000/svg">
<path d="M1 22.0001V20.6876C1 18.2509 1.96797 15.914 3.69096 14.191C5.41395 12.468 7.75082 11.5001 10.1875 11.5001V11.5001C12.6242 11.5001 14.9611 12.468 16.684 14.191C18.407 15.914 19.375 18.2509 19.375 20.6876V22.0001" stroke="black" stroke-width="1.5" stroke-linecap="round" stroke-linejoin="round"/>
<path d="M10.1875 11.5C11.5799 11.5 12.9152 10.9469 13.8998 9.96234C14.8844 8.97778 15.4375 7.64242 15.4375 6.25003C15.4375 4.85764 14.8844 3.52229 13.8998 2.53772C12.9152 1.55315 11.5799 1.00003 10.1875 1.00003C8.79511 1.00003 7.45976 1.55315 6.47519 2.53772C5.49062 3.52229 4.9375 4.85764 4.9375 6.25003C4.9375 7.64242 5.49062 8.97778 6.47519 9.96234C7.45976 10.9469 8.79511 11.5 10.1875 11.5V11.5Z" stroke="black" stroke-width="1.5" stroke-linecap="round" stroke-linejoin="round"/>
</svg>
