<svg width="3945" height="1020" viewBox="0 0 3945 1020" fill="none" xmlns="http://www.w3.org/2000/svg">
<path fill-rule="evenodd" clip-rule="evenodd" d="M3666.97 2.25C3666.43 3.487 3660.85 20.7 3654.57 40.5C3648.29 60.3 3638.39 91.315 3632.58 109.422C3626.76 127.529 3622 142.941 3622 143.672C3622 144.724 3625.48 144.996 3638.75 144.983L3655.5 144.965L3673 126.168C3682.62 115.829 3712.89 83.442 3740.25 54.196C3767.61 24.95 3790 0.791986 3790 0.510986C3790 0.229986 3762.54 0 3728.98 0H3667.96L3666.97 2.25ZM433.5 109.605C432.4 109.873 427.675 110.805 423 111.677C389.275 117.965 356.192 138.6 334.762 166.714C332.336 169.896 316.435 192.748 299.426 217.495L268.5 262.49L268.243 192.245L267.986 122H133.993H0V570.5V1019H3.3C12.356 1019 34.988 1016.68 47 1014.52C112.821 1002.67 168.857 964.46 215.041 899.942C232.335 875.783 252.475 837.871 262.912 809.829L268 796.158V573.94V351.723L279.122 330.111C285.239 318.225 293.676 301.863 297.872 293.751L305.5 279.003L308.109 289.751C311.404 303.324 313.102 308.2 318.626 319.957C325.809 335.244 334.996 348.133 347.932 361.068C383.254 396.391 431.489 411.321 480.155 401.996C539.261 390.671 585.355 345.115 597.521 286C602.272 262.916 600.454 232.336 593.002 210C589.42 199.264 579.608 180.073 572.863 170.61C564.959 159.522 549.89 144.326 539.222 136.688C523.351 125.325 502.892 116.197 483.5 111.827C476.576 110.266 470.003 109.72 455 109.458C444.275 109.271 434.6 109.337 433.5 109.605ZM697.488 123.181C697.211 123.906 697.101 275.925 697.243 461L697.5 797.5L703.735 813C715.429 842.073 727.588 865.304 744.559 891C758.414 911.979 769.622 925.745 786.939 943.055C803.376 959.486 813.241 967.671 830.286 979.019C866.974 1003.45 905.589 1015.8 953.75 1018.53L966 1019.22V672.34C966 326.221 965.996 325.443 963.959 317.98C951.399 271.96 915.247 226.188 863.918 191.317C823.178 163.64 771.464 141.21 713.274 125.979C706.798 124.284 700.71 122.664 699.745 122.379C698.78 122.095 697.764 122.456 697.488 123.181ZM1366 198.858V213.717L1377.75 214.343C1384.21 214.687 1396.7 215.228 1405.5 215.545C1424.2 216.218 1429.44 217.161 1437.24 221.257C1448.28 227.051 1455.96 236.996 1458.03 248.184C1458.68 251.717 1458.93 328.428 1458.76 469.049C1458.51 674.082 1458.41 684.693 1456.7 688.5C1454.65 693.047 1450 698.204 1445.32 701.106C1443.14 702.46 1430.61 705.269 1405.5 710.04C1385.35 713.868 1368.45 717 1367.94 717C1367.4 717 1367 723.364 1367 732.003V747.007L1507.09 746.753L1647.19 746.5L1647.05 729.539C1646.97 720.211 1646.75 712.416 1646.55 712.217C1646.35 712.018 1631.41 709.842 1613.34 707.381C1595.28 704.921 1578.92 702.49 1576.98 701.979C1571.94 700.646 1564.71 695.796 1561.51 691.607C1555.87 684.209 1556.09 688.731 1556.04 579.322L1556 478.144L1561.54 477.452C1564.59 477.071 1576.85 476.997 1588.79 477.287C1620.43 478.056 1628.52 480.37 1640 491.947C1646.49 498.492 1646.57 498.645 1708.98 622.75L1771.46 747H1865.73H1960V732.169V717.337L1935.75 710.636C1907.88 702.936 1901.53 700.196 1894.37 692.801C1889.42 687.688 1853.74 632.458 1789.52 530.508C1756.78 478.524 1746.74 461.832 1747.72 460.984C1748.15 460.612 1752.74 458.854 1757.93 457.076C1802.12 441.916 1836.91 414.675 1855.37 380.779C1873.73 347.052 1873.09 302.898 1853.72 268C1843.96 250.4 1818.94 223.195 1802.75 212.561C1779.29 197.152 1753 188.068 1723.14 185.048C1716.36 184.361 1652.99 184 1539.39 184H1366V198.858ZM2001 198.842V213.699L2011.75 214.355C2024.27 215.118 2049.38 218.656 2069.95 222.556L2084.39 225.295L2089.03 229.932C2091.9 232.801 2093.92 235.842 2094.33 237.909C2095.51 243.79 2095.11 684.053 2093.93 688.321C2092.64 692.95 2086.95 699.472 2082 702C2077.79 704.15 2057.27 708.277 2024.25 713.616L2001 717.376V732.188V747H2262.5C2406.32 747 2524 746.629 2524 746.175C2524 745.211 2538.37 662.647 2546.47 617.077C2549.54 599.783 2551.67 585.271 2551.2 584.803C2550.73 584.334 2542.53 584.075 2532.96 584.226L2515.57 584.5L2514.29 587C2513.58 588.375 2510.12 595.575 2506.59 603C2498.82 619.373 2490 634.169 2480.06 647.512C2470.96 659.723 2448.19 682.688 2434 693.954C2413.55 710.196 2419.28 709.429 2318 709.468C2227.41 709.503 2230.47 709.69 2217.33 703.319C2204.99 697.333 2195.03 684.938 2190.61 670.068C2189.18 665.236 2189 653.968 2189 567.818V471L2229.25 471.063C2285.59 471.151 2329.54 472.467 2340.05 474.382C2362.97 478.559 2368.08 482.071 2376.56 499.458C2382.82 512.289 2387.79 528.787 2392.4 552L2395.67 568.5L2410.33 568.777L2425 569.053V457.027V345H2408.63H2392.26L2390.69 350.75C2389.82 353.913 2385.67 369.775 2381.47 386C2377.03 403.154 2372.83 417.221 2371.45 419.613C2366.3 428.521 2356.94 433.954 2342.34 436.5C2335.22 437.741 2321.16 438 2260.87 438H2188V325.973V213.946L2290.25 214.232C2392.48 214.519 2392.5 214.52 2400.34 216.742C2422.2 222.939 2431.07 231.228 2447.41 260.746C2452.42 269.802 2476.82 319.864 2479.08 325.75C2479.94 327.965 2480.23 328 2497.48 328H2515V266.626C2515 200.208 2515.05 200.864 2509.54 193.645C2508.15 191.818 2504.64 189.012 2501.75 187.411L2496.5 184.5L2248.75 184.242L2001 183.984V198.842ZM3090 200.836V217.679L3117.46 218.346C3145.97 219.039 3162.79 220.296 3169.3 222.222C3174.91 223.882 3178.52 228.61 3180.35 236.674C3182.41 245.789 3182.74 250.697 3185.06 305.955C3186.82 347.939 3187.03 368.577 3186.9 484.955C3186.75 615.94 3186.66 627.049 3185.7 628C3185.42 628.275 3162.32 605.992 3134.35 578.483C3106.38 550.973 3060.55 506.007 3032.5 478.558C3004.45 451.108 2968 415.311 2951.5 399.007C2896.38 344.548 2775.09 225.743 2753.69 205.25L2732.54 185H2657.27H2582V201V217H2586.12C2588.39 217 2595.03 217.708 2600.87 218.573C2650.17 225.868 2679.99 244.817 2687.49 273.623C2690.15 283.852 2692.06 301.196 2692.92 323C2694.04 351.638 2692.44 644.395 2691.04 667C2689.24 696.02 2687.16 704.315 2680.89 707.555C2675.19 710.507 2659.63 712.069 2629.75 712.692L2601 713.292V730.15V747.008L2719.75 746.754L2838.5 746.5V730V713.5L2811.5 712.836C2777.55 712 2763.02 710.627 2757.05 707.69C2751.7 705.055 2749.65 701.444 2747.56 690.993C2745.46 680.514 2740.19 584.686 2739.48 544C2738.84 507.414 2736.55 411.823 2735 356.572C2734.46 337.362 2734.25 321.416 2734.53 321.137C2734.81 320.858 2736.72 322.211 2738.77 324.142C2740.82 326.074 2753.07 337.516 2766 349.569C2778.93 361.621 2800.53 381.836 2814.01 394.491C2827.49 407.146 2858.97 436.625 2883.97 460C2952.32 523.918 2975.92 545.998 3016.43 583.924C3036.74 602.941 3064.86 629.264 3078.93 642.421C3092.99 655.577 3120.92 681.706 3141 700.485C3161.08 719.265 3180.48 737.413 3184.13 740.815L3190.75 747H3220.32C3236.58 747 3250.08 746.662 3250.32 746.25C3250.7 745.616 3243.27 451.528 3241.63 402.014C3238.83 317.617 3237.76 258.664 3238.82 247.933C3239.94 236.6 3241.8 229.162 3244.26 226.174C3246.67 223.262 3253.63 221.168 3264.5 220.088C3281.81 218.368 3287.19 218.118 3308.27 218.057L3328.05 218L3327.77 201.25L3327.5 184.5L3208.75 184.246L3090 183.992V200.836ZM3394.44 185.3C3394.16 186.016 3394.06 192.653 3394.22 200.05L3394.5 213.5L3399.5 213.76C3417.72 214.708 3470.94 223.015 3477.61 225.952C3482.42 228.072 3486.36 232.878 3487.9 238.5C3489.38 243.934 3489.41 679.485 3487.93 686C3486.58 691.914 3482.9 697.378 3478.13 700.532C3473.48 703.611 3460.57 706.458 3422 712.913L3394.5 717.516V732.008V746.5H3655.92H3917.33L3931.14 667.5C3938.74 624.05 3944.96 587.487 3944.98 586.25L3945 584H3927.14H3909.28L3900.31 602.25C3886.59 630.133 3877.08 644.604 3859.71 664.05C3846.28 679.074 3822.31 699.398 3812.5 704.07C3801.42 709.345 3798.5 709.5 3710 709.5C3635.95 709.5 3627.93 709.343 3622.27 707.777C3606.79 703.492 3595.17 694.197 3588.56 680.811C3581.7 666.931 3582.02 672.554 3582.01 566.586L3582 470.672L3648.75 471.347C3718.97 472.057 3728.81 472.638 3744.83 477.02C3749.05 478.174 3754.3 480.172 3756.51 481.461C3767.38 487.81 3778.23 513.415 3785.12 549C3786.77 557.525 3788.33 565.524 3788.59 566.777C3789.05 569.037 3789.16 569.051 3803.78 568.777L3818.5 568.5L3818.75 456.75L3819.01 345L3802.25 345.004L3785.5 345.008L3776.59 379.754C3771.7 398.864 3766.86 416.176 3765.84 418.223C3763.06 423.808 3757.42 428.909 3750.38 432.205C3738.56 437.735 3735.39 437.927 3655.25 437.965L3582 438V326V214H3680.82C3745.44 214 3781.69 214.364 3785.57 215.051C3795.18 216.753 3806.46 220.853 3812.69 224.904C3820.42 229.936 3826.35 236.517 3833.5 248C3839.13 257.052 3861.21 300.668 3869.57 319.241L3873.5 327.982L3890.75 327.991L3908 328V265.316C3908 203.795 3907.96 202.551 3905.91 198.318C3904.76 195.946 3901.97 192.419 3899.71 190.48C3891.55 183.499 3911.6 184 3640.29 184C3439.85 184 3394.85 184.238 3394.44 185.3ZM1672.53 220.31C1728.03 230.311 1761.59 262.686 1768.09 312.5C1770.35 329.775 1767.47 355.582 1761.72 369.686C1753.82 389.031 1736.64 404.689 1710.51 416.349C1689.07 425.919 1666.11 432.124 1639.7 435.494C1627.5 437.051 1570.25 437.681 1560.64 436.364L1556 435.728V326.782V217.835L1609.75 218.259C1653.64 218.605 1665.16 218.982 1672.53 220.31ZM3839.35 912.996C3831.38 915.608 3824.09 922.042 3821.02 929.177C3819.14 933.536 3818.84 935.695 3819.21 942.073C3820.09 957.315 3826.22 963.025 3851.98 972.603C3860.1 975.623 3863.4 977.434 3866.65 980.649C3873.25 987.168 3874.8 996.014 3870.75 1004.04C3867.75 1009.99 3861.95 1013 3853.54 1012.99C3839.53 1012.97 3828.53 1002.56 3822.61 983.75C3822.25 982.589 3821.04 982 3819.03 982H3816V990.846C3816 995.712 3816.29 1003.81 3816.65 1008.85L3817.3 1018H3820.17C3822.28 1018 3823.35 1017.32 3824.21 1015.43C3824.96 1013.8 3825.95 1013.05 3826.94 1013.37C3827.8 1013.64 3831.65 1015.06 3835.5 1016.51C3849.23 1021.69 3862.96 1020.6 3873.75 1013.45C3883.33 1007.12 3887.43 999.067 3887.33 986.841C3887.19 971.789 3879.95 965.004 3853 954.677C3838.07 948.957 3833 943.564 3833 933.4C3833 927.484 3835.62 923.142 3841.03 920.101C3847.02 916.738 3856.23 917.383 3862.23 921.585C3867.2 925.071 3872.07 932.681 3875.05 941.656C3877 947.517 3877.39 948 3880.08 948H3883V931V914H3879.62C3877.32 914 3875.81 914.657 3874.87 916.065C3873.5 918.124 3873.48 918.121 3866.79 914.991C3857.86 910.81 3848.18 910.106 3839.35 912.996ZM1918.11 914.187C1912.07 929.979 1904.74 948.727 1894.84 973.741C1881.78 1006.73 1880.35 1009.11 1872.39 1011.24C1868.53 1012.27 1868 1012.75 1868 1015.21V1018H1887.5H1907V1015.14C1907 1012.51 1906.63 1012.22 1902.63 1011.67C1896.53 1010.84 1893.05 1009.05 1892.39 1006.4C1891.8 1004.07 1893.64 996.702 1897.15 987.333L1899.14 982H1917.43H1935.72L1940.52 995.043C1944.09 1004.76 1945.03 1008.37 1944.18 1009.22C1943.56 1009.84 1940.45 1010.87 1937.27 1011.51C1932.15 1012.53 1931.5 1012.93 1931.5 1015.08V1017.5L1953.25 1017.77L1975 1018.04V1015.02C1975 1012.86 1974.52 1012 1973.32 1012C1970.14 1012 1962.95 1007.8 1961.58 1005.15C1960.36 1002.77 1941.1 953.836 1929.66 924C1925.42 912.962 1925.12 912.487 1922.12 912.187C1919.62 911.936 1918.82 912.337 1918.11 914.187ZM3450.11 914.187C3434.39 954.974 3418.29 995.696 3415.98 1000.55C3412.8 1007.21 3409.05 1010.44 3403.14 1011.62C3400.49 1012.15 3400 1012.7 3400 1015.12V1018H3419.5H3439V1015C3439 1012.56 3438.58 1012 3436.75 1011.99C3433.1 1011.99 3427.19 1010.05 3425.43 1008.29C3423.34 1006.19 3423.98 1001.93 3428.1 990.535L3431.19 982H3449.46H3467.74L3472.46 994.546C3475.05 1001.45 3476.94 1007.72 3476.65 1008.48C3476.08 1009.95 3470.06 1011.99 3466.25 1011.99C3464.42 1012 3464 1012.56 3464 1015V1018H3485.5H3507V1015C3507 1012.85 3506.52 1012 3505.32 1012C3502.47 1012 3495.58 1008.18 3494.07 1005.78C3493.29 1004.52 3484.67 983.025 3474.93 958L3457.22 912.5L3454.11 912.187C3451.63 911.936 3450.82 912.34 3450.11 914.187ZM1440.42 913.917C1440.19 914.146 1440 915.344 1440 916.579C1440 918.431 1440.72 918.946 1444.14 919.523C1446.75 919.964 1449.6 921.442 1451.89 923.534L1455.5 926.846V964.173C1455.5 984.703 1455.15 1002.75 1454.72 1004.28C1453.77 1007.69 1449.01 1010.73 1443.28 1011.58C1439.38 1012.17 1439 1012.48 1439 1015.11V1018H1460H1481V1015.21C1481 1012.67 1480.45 1012.25 1474.82 1010.46C1464.03 1007.04 1464.54 1009.27 1464.27 964.178L1464.04 925.5L1478.54 964C1486.52 985.175 1494.21 1005.56 1495.63 1009.31C1500.06 1020.97 1499.77 1021.42 1519.77 971.772C1529.45 947.722 1537.54 928.205 1537.73 928.401C1537.93 928.597 1538.06 946.25 1538.02 967.629L1537.95 1006.5L1535.65 1008.8C1534 1010.46 1531.73 1011.28 1527.62 1011.7C1522.17 1012.26 1521.91 1012.41 1522.2 1014.9L1522.5 1017.5H1545.5H1568.5V1015.08C1568.5 1012.96 1567.81 1012.5 1563.04 1011.42C1553.51 1009.28 1554 1011.75 1554 965.344V924.909L1556.31 922.596C1557.72 921.188 1560.46 920.008 1563.31 919.58C1567.42 918.964 1568 918.577 1568 916.439V914H1551.12H1534.24L1533.15 918.333C1532.55 920.716 1528.2 932.529 1523.48 944.583C1518.76 956.637 1512.82 971.806 1510.29 978.291C1507.76 984.776 1505.34 989.726 1504.92 989.291C1504.5 988.856 1497.99 972.3 1490.46 952.5C1482.93 932.7 1476.45 915.915 1476.06 915.201C1475.54 914.225 1471.07 913.852 1458.1 913.701C1448.6 913.59 1440.65 913.688 1440.42 913.917ZM2719.75 913.76L2675 914.021V928.01C2675 941.852 2675.02 942 2677.25 942C2679.04 942 2680.16 940.616 2682.77 935.19C2684.57 931.444 2687.94 926.535 2690.27 924.28C2694.46 920.219 2694.58 920.177 2703 919.84L2711.5 919.5V963.392V1007.28L2708.94 1009.19C2707.48 1010.29 2703.92 1011.36 2700.64 1011.7C2695.17 1012.26 2694.91 1012.41 2695.2 1014.9L2695.5 1017.5L2720.25 1017.77L2745 1018.04V1015.25C2745 1012.62 2744.64 1012.39 2738.75 1011.28C2734.18 1010.41 2731.9 1009.39 2730.25 1007.49L2728 1004.89V962.503C2728 939.191 2728.39 919.876 2728.87 919.58C2729.35 919.285 2733.47 919.33 2738.03 919.682C2745.9 920.289 2746.51 920.508 2750.04 924.036C2752.08 926.079 2755.27 930.947 2757.12 934.854C2760.08 941.066 2760.81 941.928 2763 941.729L2765.5 941.5L2765.78 928.08C2765.93 920.699 2765.71 914.399 2765.28 914.08C2764.85 913.761 2744.36 913.617 2719.75 913.76ZM2277.22 927.75L2277.5 941.5L2280 941.766C2282.2 942 2282.9 941.185 2285.81 934.96C2287.62 931.071 2290.81 926.186 2292.9 924.105C2296.5 920.497 2297.06 920.291 2304.97 919.682C2309.53 919.33 2313.65 919.285 2314.13 919.58C2314.61 919.876 2315 939.341 2315 962.837C2315 1010.41 2315.19 1009.02 2308.22 1010.96C2306.17 1011.52 2303.01 1011.99 2301.18 1011.99C2298.16 1012 2297.9 1012.24 2298.18 1014.75L2298.5 1017.5H2323H2347.5V1015.13C2347.5 1013.04 2346.7 1012.56 2340.59 1011.02C2336.65 1010.03 2333.11 1008.5 2332.34 1007.45C2331.27 1005.99 2331 996.923 2331 962.257V918.896L2339.75 919.599C2344.56 919.985 2349.5 920.95 2350.71 921.742C2353.44 923.518 2359.3 932.22 2361.55 937.828C2362.86 941.096 2363.74 942 2365.61 942H2368V928V914H2322.47H2276.94L2277.22 927.75ZM3057.18 916.195C3057.43 917.928 3058.76 918.763 3063.5 920.16C3073.59 923.138 3073 920.237 3073 966.611C3073 1005.28 3072.92 1007.08 3071.06 1008.94C3069.27 1010.73 3066.63 1011.51 3060 1012.23C3058.07 1012.44 3057.5 1013.07 3057.5 1015V1017.5H3081H3104.5V1015.08C3104.5 1012.94 3103.81 1012.5 3098.5 1011.32C3088.41 1009.07 3089 1011.95 3089 965.044C3089 918.307 3088.28 921.664 3098.73 919.578C3103.49 918.628 3104.56 918.039 3104.82 916.213L3105.14 914H3081H3056.86L3057.18 916.195ZM1924.91 954.695C1928.81 964.703 1932 973.365 1932 973.945C1932 974.638 1926.87 975 1917.04 975H1902.09L1903.44 971.25C1904.19 969.188 1907.24 961.2 1910.23 953.5C1913.22 945.8 1915.98 938.648 1916.36 937.607C1916.74 936.566 1917.22 935.891 1917.44 936.107C1917.65 936.323 1921.01 944.688 1924.91 954.695ZM3456.9 954.569C3460.8 964.506 3464 973.169 3464 973.819C3464 974.674 3459.88 975 3449.04 975H3434.09L3436.45 968.75C3437.75 965.313 3440.81 957.325 3443.24 951C3445.67 944.675 3447.97 938.648 3448.35 937.607C3448.73 936.566 3449.21 935.891 3449.42 936.107C3449.62 936.323 3452.99 944.631 3456.9 954.569Z" fill="black"/>
</svg>
