<svg width="48" height="33" viewBox="0 0 48 33" fill="none" xmlns="http://www.w3.org/2000/svg">
<g clip-path="url(#clip0_933_14663)">
<path d="M45.5 1H2.5C1.39543 1 0.5 1.89543 0.5 3V30C0.5 31.1046 1.39543 32 2.5 32H45.5C46.6046 32 47.5 31.1046 47.5 30V3C47.5 1.89543 46.6046 1 45.5 1Z" fill="#FCFCFC" stroke="#CBCBCB" stroke-opacity="0.5"/>
<path fill-rule="evenodd" clip-rule="evenodd" d="M20.062 23.5748H27.936V9.4248H20.062V23.5748Z" fill="#FF5F00"/>
<path fill-rule="evenodd" clip-rule="evenodd" d="M20.563 16.501C20.5615 15.138 20.8703 13.7925 21.466 12.5666C22.0616 11.3406 22.9285 10.2663 24.001 9.42503C20.092 6.35403 14.435 7.03203 11.365 10.939C8.29297 14.848 8.97097 20.505 12.879 23.575C14.4647 24.8212 16.4231 25.4986 18.44 25.4986C20.4568 25.4986 22.4152 24.8212 24.001 23.575C22.9288 22.7339 22.0622 21.6599 21.4665 20.4343C20.8709 19.2088 20.5619 17.8637 20.563 16.501Z" fill="#EB001B"/>
<path fill-rule="evenodd" clip-rule="evenodd" d="M38.56 16.5009C38.5602 18.1895 38.0852 19.844 37.1894 21.2754C36.2935 22.7068 35.013 23.8572 33.4942 24.5951C31.9753 25.3331 30.2795 25.6287 28.6006 25.4483C26.9216 25.2679 25.3274 24.6187 24 23.5749C27.908 20.5049 28.585 14.8479 25.515 10.9389C25.072 10.3757 24.5634 9.86746 24 9.42486C25.3275 8.38148 26.9217 7.7326 28.6005 7.55239C30.2793 7.37217 31.9749 7.66789 33.4936 8.40574C35.0123 9.1436 36.2927 10.2938 37.1887 11.725C38.0846 13.1561 38.5598 14.8104 38.56 16.4989V16.5009Z" fill="#F79E1B"/>
</g>
<defs>
<clipPath id="clip0_933_14663">
<rect width="48" height="32" fill="white" transform="translate(0 0.5)"/>
</clipPath>
</defs>
</svg>
