<svg width="9" height="16" viewBox="0 0 9 16" fill="none" xmlns="http://www.w3.org/2000/svg">
<path d="M8.00003 7.99997C8.00049 8.23362 7.91911 8.46006 7.77003 8.63997L2.77003 14.64C2.60029 14.8442 2.35638 14.9726 2.09196 14.997C1.82753 15.0214 1.56425 14.9397 1.36003 14.77C1.15581 14.6002 1.02739 14.3563 1.00301 14.0919C0.978631 13.8275 1.06029 13.5642 1.23003 13.36L5.71003 7.99997L1.39003 2.63997C1.30697 2.53768 1.24493 2.41998 1.2075 2.29364C1.17007 2.16731 1.15798 2.03481 1.17192 1.90379C1.18586 1.77276 1.22555 1.64578 1.28873 1.53014C1.3519 1.4145 1.4373 1.31249 1.54003 1.22997C1.64285 1.13839 1.76348 1.06903 1.89435 1.02624C2.02523 0.983444 2.16353 0.968142 2.30059 0.981284C2.43765 0.994427 2.57053 1.03573 2.69088 1.10262C2.81124 1.1695 2.91649 1.26052 3.00003 1.36997L7.83003 7.36997C7.95555 7.55505 8.0154 7.77687 8.00003 7.99997Z" fill="#000000"/>
</svg>
