<svg width="14" height="26" viewBox="0 0 14 26" fill="none" xmlns="http://www.w3.org/2000/svg">
<path d="M0.686085 2.77445C0.573379 2.65518 0.485268 2.51488 0.426783 2.36156C0.368298 2.20824 0.340584 2.0449 0.345224 1.88087C0.349864 1.71684 0.386767 1.55533 0.453826 1.40556C0.520886 1.25579 0.616787 1.12069 0.736056 1.00799C0.855324 0.89528 0.995625 0.807169 1.14895 0.748684C1.30227 0.690199 1.46561 0.662485 1.62964 0.667126C1.79367 0.671766 1.95518 0.708669 2.10495 0.775728C2.25472 0.842787 2.38981 0.938689 2.50252 1.05796L13.1213 12.3014C13.3406 12.5333 13.4628 12.8404 13.4628 13.1596C13.4628 13.4788 13.3406 13.7859 13.1213 14.0179L2.50252 25.2625C2.39056 25.3844 2.25549 25.4828 2.10517 25.552C1.95485 25.6213 1.79227 25.66 1.62688 25.6658C1.46148 25.6717 1.29656 25.6447 1.14171 25.5863C0.986855 25.5279 0.845146 25.4393 0.724816 25.3257C0.604486 25.212 0.507932 25.0756 0.440764 24.9244C0.373596 24.7731 0.337152 24.61 0.333548 24.4446C0.329945 24.2791 0.359253 24.1146 0.419773 23.9605C0.480292 23.8065 0.570816 23.666 0.686085 23.5473L10.4953 13.1596L0.686085 2.77445V2.77445Z" fill="black"/>
</svg>
