<svg width="99" height="33" viewBox="0 0 99 33" fill="none" xmlns="http://www.w3.org/2000/svg">
<g clip-path="url(#clip0_933_14655)">
<path fill-rule="evenodd" clip-rule="evenodd" d="M15.1696 11.1855H20.7841C23.7986 11.1855 24.9334 12.7116 24.758 14.9537C24.4681 18.6551 22.2305 20.7029 19.2623 20.7029H17.7638C17.3566 20.7029 17.0826 20.9725 16.9725 21.7029L16.3363 25.9493C16.2942 26.2247 16.1493 26.3841 15.9319 26.4058H12.4044C12.0725 26.4058 11.9551 26.1522 12.0421 25.6029L14.1928 11.9899C14.2768 11.445 14.5754 11.1855 15.1696 11.1855Z" fill="#009EE3"/>
<path fill-rule="evenodd" clip-rule="evenodd" d="M39.5449 10.9336C41.4391 10.9336 43.187 11.9611 42.9478 14.522C42.658 17.5655 41.0275 19.2495 38.4551 19.2568H36.2073C35.8841 19.2568 35.7275 19.5205 35.6435 20.0611L35.2087 22.8249C35.1435 23.2423 34.929 23.4481 34.613 23.4481H32.5217C32.1884 23.4481 32.0725 23.235 32.1464 22.7582L33.8725 11.6814C33.958 11.1365 34.1623 10.9336 34.5348 10.9336H39.5406H39.5449ZM36.1391 16.864H37.842C38.9073 16.8234 39.6145 16.0858 39.6855 14.7553C39.729 13.9336 39.1739 13.3452 38.2913 13.3495L36.6884 13.3568L36.1391 16.864ZM48.6333 22.6003C48.8246 22.4263 49.0188 22.3365 48.9913 22.551L48.9232 23.064C48.8884 23.3321 48.9942 23.4742 49.2435 23.4742H51.1015C51.4145 23.4742 51.5667 23.3481 51.6435 22.864L52.7884 15.6785C52.8464 15.3177 52.758 15.1408 52.4841 15.1408H50.4406C50.2565 15.1408 50.1667 15.2437 50.1188 15.5249L50.0435 15.9669C50.0044 16.1974 49.8986 16.2379 49.8 16.0061C49.4536 15.1858 48.5696 14.8177 47.3362 14.8466C44.471 14.9061 42.5391 17.0814 42.3319 19.8698C42.1725 22.0263 43.7174 23.7205 45.7551 23.7205C47.2333 23.7205 47.8942 23.2858 48.6391 22.6046L48.6333 22.6003ZM47.0768 21.4945C45.8435 21.4945 44.9841 20.5104 45.1623 19.3046C45.3406 18.0988 46.4942 17.1148 47.7275 17.1148C48.9609 17.1148 49.8203 18.0988 49.642 19.3046C49.4638 20.5104 48.3116 21.4945 47.0768 21.4945ZM56.4246 15.1177H54.5406C54.1522 15.1177 53.9942 15.4075 54.1174 15.764L56.4565 22.6133L54.1623 25.8727C53.9696 26.1452 54.1188 26.393 54.3899 26.393H56.5073C56.7593 26.4222 57.0051 26.3015 57.1362 26.0843L64.3304 15.7655C64.5522 15.4481 64.4478 15.1148 64.0841 15.1148H62.0797C61.7362 15.1148 61.5986 15.251 61.4015 15.5365L58.4015 19.8843L57.0609 15.5263C56.9826 15.2626 56.787 15.1177 56.4261 15.1177H56.4246Z" fill="#113984"/>
<path fill-rule="evenodd" clip-rule="evenodd" d="M71.8145 10.9336C73.7087 10.9336 75.4565 11.9611 75.2174 14.522C74.9275 17.5654 73.2971 19.2495 70.7246 19.2568H68.4782C68.1551 19.2568 67.9985 19.5205 67.9145 20.0611L67.4797 22.8249C67.4145 23.2423 67.2 23.4481 66.884 23.4481H64.7927C64.4594 23.4481 64.3435 23.235 64.4174 22.7582L66.1464 11.6785C66.2319 11.1336 66.4362 10.9307 66.8087 10.9307H71.8145V10.9336ZM68.4087 16.864H70.1116C71.1768 16.8234 71.884 16.0857 71.9551 14.7553C71.9985 13.9336 71.4435 13.3452 70.5609 13.3495L68.958 13.3568L68.4087 16.864ZM80.9029 22.6002C81.0942 22.4263 81.2884 22.3365 81.2609 22.551L81.1927 23.064C81.158 23.3321 81.2638 23.4741 81.513 23.4741H83.371C83.684 23.4741 83.8362 23.3481 83.913 22.864L85.058 15.6785C85.1159 15.3176 85.0275 15.1408 84.7536 15.1408H82.713C82.529 15.1408 82.4391 15.2437 82.3913 15.5249L82.3159 15.9669C82.2768 16.1973 82.171 16.2379 82.0725 16.006C81.7261 15.1857 80.842 14.8176 79.6087 14.8466C76.7435 14.906 74.8116 17.0814 74.6043 19.8698C74.4449 22.0263 75.9898 23.7205 78.0275 23.7205C79.5058 23.7205 80.1666 23.2857 80.9116 22.6046L80.9029 22.6002ZM79.3478 21.4944C78.1145 21.4944 77.2551 20.5104 77.4333 19.3046C77.6116 18.0988 78.7652 17.1147 79.9985 17.1147C81.2319 17.1147 82.0913 18.0988 81.913 19.3046C81.7348 20.5104 80.5811 21.4944 79.3478 21.4944ZM87.9174 23.4857H85.7724C85.6969 23.4891 85.6238 23.4586 85.5731 23.4025C85.5223 23.3465 85.4993 23.2707 85.5101 23.1959L87.3942 11.2596C87.4312 11.0919 87.579 10.9718 87.7507 10.9698H89.8956C89.9712 10.9664 90.0443 10.9969 90.095 11.053C90.1458 11.109 90.1688 11.1848 90.158 11.2596L88.2739 23.1959C88.238 23.3648 88.09 23.4863 87.9174 23.4886V23.4857Z" fill="#009EE3"/>
<path fill-rule="evenodd" clip-rule="evenodd" d="M11.658 6.5H17.2783C18.8609 6.5 20.7391 6.55072 21.9942 7.65942C22.8333 8.4 23.2739 9.57826 23.1725 10.8478C22.8275 15.1391 20.2609 17.5435 16.8174 17.5435H14.0464C13.5739 17.5435 13.2623 17.8565 13.129 18.7029L12.3551 23.6304C12.3043 23.9493 12.1667 24.1377 11.9203 24.1609H8.45217C8.06812 24.1609 7.93188 23.871 8.03188 23.2304L10.5246 7.43623C10.6246 6.80145 10.9739 6.5 11.658 6.5Z" fill="#113984"/>
<path fill-rule="evenodd" clip-rule="evenodd" d="M13.2102 18.2024L14.1914 11.9894C14.2769 11.4445 14.5754 11.1836 15.1696 11.1836H20.7841C21.7131 11.1836 22.4653 11.3285 23.0537 11.5966C22.4899 15.4169 20.0189 17.5387 16.7841 17.5387H14.0175C13.6464 17.5401 13.374 17.7256 13.2102 18.2024Z" fill="#172C70"/>
</g>
<rect x="0.5" y="1" width="98" height="31" rx="2.5" stroke="#E0E0E0"/>
<defs>
<clipPath id="clip0_933_14655">
<rect width="83" height="20" fill="white" transform="translate(8 6.5)"/>
</clipPath>
</defs>
</svg>
