<svg width="21" height="20" viewBox="0 0 21 20" fill="none" xmlns="http://www.w3.org/2000/svg">
<path d="M16.9062 5.00391V0.625H4.09375V5.00391C3.29333 5.04493 2.53917 5.39154 1.9868 5.97226C1.43442 6.55298 1.12595 7.32353 1.125 8.125V15.625H3.78125V14.375H2.375V8.125C2.37556 7.62789 2.57328 7.1513 2.92479 6.79979C3.2763 6.44828 3.75289 6.25056 4.25 6.25H16.75C17.2471 6.25056 17.7237 6.44828 18.0752 6.79979C18.4267 7.1513 18.6244 7.62789 18.625 8.125V14.375H16.9062V15.625H19.875V8.125C19.8741 7.32353 19.5656 6.55298 19.0132 5.97226C18.4608 5.39154 17.7067 5.04493 16.9062 5.00391ZM15.6562 5H5.34375V1.875H15.6562V5Z" fill="#333333"/>
<path d="M15.9688 7.8125H17.2188V9.0625H15.9688V7.8125Z" fill="#333333"/>
<path d="M5.03125 10.3125H3.46875V11.5625H5.03125V19.375H15.6562V11.5625H17.2188V10.3125H5.03125ZM14.4062 18.125H6.28125V11.5625H14.4062V18.125Z" fill="#333333"/>
</svg>
