<?xml version="1.0" standalone="no"?>
<!DOCTYPE svg PUBLIC "-//W3C//DTD SVG 20010904//EN"
 "http://www.w3.org/TR/2001/REC-SVG-20010904/DTD/svg10.dtd">
<svg version="1.0" xmlns="http://www.w3.org/2000/svg"
 width="199" height="100" viewBox="0 0 2898.000000 1147.000000"
 preserveAspectRatio="xMidYMid meet">

<g transform="translate(0.000000,1147.000000) scale(0.100000,-0.100000)"
fill="#000000" stroke="none">
<path d="M25845 11448 c-3 -7 -102 -317 -220 -688 -119 -371 -227 -711 -242
-755 -14 -44 -32 -99 -39 -122 l-13 -43 194 0 194 0 413 442 c433 464 930 996
1037 1111 l63 67 -691 0 c-544 0 -693 -3 -696 -12z"/>
<path d="M0 9227 l0 -164 83 -6 c45 -4 163 -9 262 -12 297 -10 358 -18 443
-61 91 -45 178 -128 218 -210 l29 -59 3 -2460 c2 -2723 7 -2520 -63 -2603 -73
-85 -57 -80 -755 -212 -91 -18 -175 -34 -188 -37 -22 -5 -22 -7 -22 -169 l0
-164 1575 0 1575 0 0 195 0 194 -32 6 c-18 3 -98 14 -178 25 -515 68 -578 78
-629 105 -71 36 -125 87 -155 148 l-26 51 0 1147 0 1148 43 5 c175 21 490 12
642 -19 101 -21 188 -67 255 -136 64 -65 79 -93 1051 -2026 l423 -843 1058 0
1058 0 -2 166 -3 166 -100 28 c-55 16 -185 52 -290 81 -167 47 -198 59 -262
101 -82 56 -108 86 -211 247 -558 870 -1166 1832 -1394 2205 -70 115 -128 212
-128 216 0 3 21 12 47 18 83 23 270 100 393 162 294 150 529 350 699 595 314
451 307 1038 -17 1521 -75 110 -264 319 -360 397 -253 204 -509 318 -882 394
-78 16 -245 17 -2122 20 l-2038 3 0 -163z m3165 -217 c317 -16 522 -63 730
-167 325 -162 533 -436 610 -803 23 -106 27 -322 10 -455 -23 -173 -72 -313
-148 -425 -191 -280 -626 -486 -1236 -587 -108 -18 -734 -30 -898 -18 l-93 7
0 1229 0 1229 418 0 c229 0 503 -5 607 -10z"/>
<path d="M7132 9228 l3 -163 40 -3 c231 -16 762 -94 867 -128 57 -18 122 -85
137 -140 8 -27 11 -791 11 -2530 0 -2082 -2 -2498 -14 -2536 -18 -60 -59 -113
-111 -144 -54 -31 -239 -72 -593 -129 -152 -25 -292 -47 -309 -50 l-33 -6 0
-164 0 -165 2938 0 2937 0 28 162 c87 499 110 627 152 868 25 146 61 353 80
460 19 107 39 219 45 249 5 29 10 60 10 67 0 11 -39 14 -205 14 l-205 0 -83
-174 c-99 -204 -174 -334 -270 -471 -148 -208 -342 -408 -582 -598 -166 -132
-212 -145 -550 -157 -319 -12 -1340 -12 -1550 0 -141 7 -170 12 -245 39 -167
61 -291 188 -356 367 l-29 79 -3 1099 -2 1099 722 -6 c733 -7 871 -13 1033
-46 207 -43 267 -88 354 -264 78 -159 134 -350 187 -634 l28 -153 168 0 168 0
0 1260 0 1260 -187 -2 -186 -3 -103 -397 c-108 -416 -123 -459 -190 -518 -48
-42 -141 -87 -221 -108 -62 -15 -144 -17 -923 -17 l-855 0 -3 1258 -2 1258
1147 -4 c1134 -3 1149 -3 1223 -24 297 -84 388 -182 644 -693 72 -146 164
-334 204 -418 l71 -152 193 2 193 3 0 700 0 700 -28 57 c-16 32 -46 73 -69 92
-83 72 170 66 -2905 66 l-2773 0 2 -162z"/>
<path d="M13654 9377 c-2 -7 -3 -87 -2 -177 l3 -165 105 -12 c148 -17 359 -60
465 -95 124 -41 297 -126 377 -187 166 -126 234 -256 272 -516 36 -245 38
-355 33 -2110 -7 -2413 -14 -2541 -150 -2612 -53 -27 -245 -45 -567 -51 l-315
-7 -3 -187 -2 -188 1335 0 1335 0 0 190 0 190 -187 0 c-219 0 -537 16 -632 31
-191 30 -208 79 -241 684 -11 199 -21 371 -40 672 -5 87 -14 442 -20 788 -6
347 -14 783 -20 970 -22 807 -33 1256 -28 1260 2 3 54 -41 115 -98 147 -137
516 -483 798 -747 127 -119 304 -285 395 -370 91 -84 199 -185 240 -225 41
-39 149 -140 240 -225 91 -84 237 -221 325 -304 347 -326 737 -691 1005 -941
120 -112 466 -436 880 -824 174 -163 482 -452 685 -642 204 -191 383 -361 399
-378 l30 -31 344 0 345 0 -7 183 c-3 100 -11 351 -16 557 -6 206 -14 544 -20
750 -5 206 -14 553 -20 770 -11 451 -16 646 -30 1125 -10 353 -12 413 -32
1135 -7 239 -13 595 -13 790 0 548 10 572 250 607 61 9 227 16 423 20 l322 6
0 188 0 189 -1335 0 -1335 0 2 -187 3 -188 320 -7 c336 -7 540 -25 600 -54 47
-22 80 -80 99 -174 19 -96 24 -164 36 -500 5 -151 12 -302 15 -335 2 -33 7
-150 11 -260 4 -110 9 -204 11 -208 9 -15 -9 -3078 -18 -3075 -5 2 -1110 1084
-2456 2404 -1347 1321 -2491 2443 -2543 2493 l-95 91 -843 0 c-678 0 -844 -3
-848 -13z"/>
<path d="M22780 9225 l0 -165 44 0 c135 0 754 -90 867 -126 49 -16 100 -59
127 -108 16 -29 17 -213 20 -2540 1 -1620 -1 -2521 -8 -2545 -16 -60 -65 -127
-113 -155 -56 -33 -227 -71 -592 -130 -154 -25 -295 -48 -312 -51 l-33 -6 0
-164 0 -165 2938 2 2937 3 22 125 c12 69 40 231 62 360 23 129 59 336 81 460
22 124 54 306 70 405 17 99 42 240 55 313 14 73 25 138 25 143 0 5 -85 9 -207
9 l-208 -1 -54 -119 c-219 -487 -483 -818 -927 -1164 -69 -53 -162 -90 -270
-106 -96 -15 -1507 -25 -1749 -12 -170 9 -198 13 -270 39 -190 68 -313 203
-372 407 l-23 78 0 1079 0 1079 443 0 c690 -1 1119 -14 1257 -39 126 -22 213
-49 267 -82 125 -78 252 -402 333 -851 l23 -128 169 0 168 0 0 1260 0 1260
-187 -2 -187 -3 -17 -65 c-9 -36 -56 -216 -104 -400 -107 -412 -119 -436 -266
-511 -131 -66 -104 -64 -1049 -64 l-855 0 0 1255 0 1255 1140 0 1140 0 95 -26
c222 -62 336 -154 473 -385 67 -115 252 -481 390 -777 l46 -97 191 2 191 3 -1
703 0 704 -26 54 c-30 64 -94 120 -160 140 -40 12 -457 14 -2816 14 l-2768 0
0 -165z"/>
<path d="M27805 1211 c-92 -25 -174 -88 -223 -170 -24 -42 -27 -56 -27 -146 0
-117 15 -155 88 -222 55 -51 88 -68 255 -133 154 -60 199 -90 232 -156 29 -58
33 -151 8 -199 -40 -75 -98 -105 -206 -105 -142 0 -248 87 -318 264 -30 75
-34 81 -63 84 l-31 3 0 -168 c0 -92 3 -185 6 -206 6 -33 10 -37 36 -37 22 0
33 7 46 30 19 34 17 34 112 -6 239 -99 503 -11 580 194 17 45 21 74 18 137 -4
96 -32 160 -93 212 -41 35 -188 110 -260 133 -104 33 -208 100 -238 155 -39
71 -24 167 34 219 62 57 156 69 244 31 71 -30 136 -122 179 -255 20 -61 23
-65 51 -65 l30 0 2 183 c1 101 -1 190 -4 198 -9 25 -59 17 -81 -13 l-20 -27
-73 34 c-64 30 -86 34 -164 37 -49 1 -103 -2 -120 -6z"/>
<path d="M6199 1183 c-55 -147 -238 -616 -320 -822 -80 -203 -108 -242 -183
-262 -64 -16 -66 -17 -66 -37 0 -39 19 -43 236 -40 l209 3 0 29 c0 28 -3 30
-56 41 -72 14 -109 38 -109 70 0 26 63 229 78 253 7 9 56 12 211 10 l203 -3
49 -133 c27 -74 49 -142 49 -153 0 -24 -26 -37 -94 -45 -53 -6 -56 -8 -56 -35
0 -21 6 -30 23 -34 12 -3 121 -4 242 -3 l220 3 3 31 c3 30 1 32 -38 38 -28 4
-53 18 -80 44 -33 32 -51 69 -131 277 -51 132 -140 364 -199 515 l-107 275
-37 3 c-32 3 -37 0 -47 -25z m85 -462 c42 -106 76 -199 76 -207 0 -11 -30 -14
-165 -14 -139 0 -165 2 -165 15 0 8 13 47 29 87 16 40 45 116 65 168 59 160
67 176 76 159 5 -8 42 -101 84 -208z"/>
<path d="M23403 1173 c-8 -21 -87 -220 -173 -443 -246 -629 -228 -596 -332
-631 -47 -16 -53 -21 -53 -46 l0 -28 218 -3 217 -2 0 33 c0 33 -2 35 -46 41
-58 8 -112 33 -117 54 -5 24 18 115 51 202 l28 75 205 3 205 2 53 -145 c43
-118 51 -148 41 -160 -14 -17 -72 -35 -113 -35 -26 0 -28 -3 -25 -32 l3 -33
240 0 240 0 3 31 c3 29 1 32 -36 37 -21 4 -54 17 -72 29 -40 27 -59 69 -196
423 -285 741 -252 665 -291 665 -30 0 -36 -5 -50 -37z m44 -341 c23 -59 60
-154 82 -210 23 -57 38 -108 35 -113 -7 -11 -321 -12 -328 -1 -3 5 29 96 70
203 42 107 78 202 81 212 3 9 8 17 12 17 3 0 25 -49 48 -108z"/>
<path d="M834 1186 c-13 -33 1 -50 46 -58 53 -9 88 -33 115 -79 19 -32 20 -52
20 -429 0 -420 -3 -445 -48 -488 -13 -12 -50 -28 -82 -35 -57 -13 -60 -15 -60
-43 l0 -29 235 0 235 0 0 29 c0 28 -4 31 -58 47 -138 41 -137 36 -136 558 l0
406 26 -65 c14 -36 45 -117 68 -180 36 -96 217 -582 272 -728 14 -37 20 -43
41 -40 24 3 39 37 221 490 108 269 200 488 204 488 4 0 6 -198 5 -440 l-3
-440 -25 -25 c-19 -19 -40 -26 -88 -31 l-63 -7 3 -31 3 -31 255 0 255 0 0 29
c0 28 -3 30 -57 41 -68 13 -85 26 -98 74 -15 54 -12 856 3 901 13 38 52 58
115 59 30 1 32 3 32 36 l0 35 -189 0 -189 0 -7 -32 c-14 -64 -40 -133 -226
-604 -43 -111 -79 -207 -79 -214 0 -6 -5 -10 -11 -8 -10 3 -215 525 -312 793
l-22 60 -198 3 c-166 2 -198 0 -203 -12z"/>
<path d="M10240 1040 l0 -160 28 0 c24 0 31 8 60 69 17 38 53 93 79 121 l48
52 103 5 102 6 0 -482 c0 -348 -3 -488 -12 -504 -19 -36 -39 -46 -111 -53
l-68 -7 3 -31 3 -31 255 -3 c140 -1 265 0 278 3 15 4 22 13 22 31 0 28 -1 28
-84 44 -37 8 -68 21 -82 36 l-24 23 0 486 0 485 68 0 c91 -1 139 -13 173 -46
34 -32 76 -100 100 -159 14 -33 22 -41 48 -43 l32 -3 -3 158 -3 158 -507 3
-508 2 0 -160z"/>
<path d="M14707 1193 c-4 -3 -7 -75 -7 -160 l0 -153 30 0 c20 0 33 6 36 18 17
51 64 131 99 169 46 50 82 62 188 63 l67 0 0 -479 c0 -280 -4 -490 -10 -505
-12 -34 -38 -46 -116 -53 l-65 -6 3 -31 3 -31 275 0 275 0 3 33 c3 29 1 32
-26 32 -48 0 -130 29 -147 53 -13 19 -15 86 -15 504 l0 483 68 0 c107 -1 141
-12 190 -66 23 -26 57 -78 75 -115 28 -61 35 -69 59 -69 l28 0 0 160 0 160
-503 0 c-277 0 -507 -3 -510 -7z"/>
<path d="M19007 1193 c-4 -3 -7 -19 -7 -33 0 -25 4 -28 49 -34 27 -3 64 -17
82 -29 l34 -23 3 -465 2 -465 -24 -23 c-18 -17 -41 -24 -86 -28 l-61 -6 3 -31
3 -31 240 -3 c132 -1 250 0 263 3 18 4 23 11 20 32 -3 24 -9 28 -68 39 -47 10
-71 21 -87 39 l-23 26 0 444 c0 257 4 454 10 469 12 32 37 45 108 54 55 7 57
8 57 37 l0 30 -256 3 c-140 1 -258 -1 -262 -5z"/>
</g>
</svg>
