<svg width="48" height="48" viewBox="0 0 48 48" fill="none" xmlns="http://www.w3.org/2000/svg">
<path d="M11.7748 19.8482C11.8382 19.0588 12.1965 18.3223 12.7785 17.7852C13.3605 17.2482 14.1235 16.95 14.9154 16.9502H33.9067C34.6986 16.95 35.4616 17.2482 36.0436 17.7852C36.6256 18.3223 36.9839 19.0588 37.0473 19.8482L38.312 35.5982C38.3468 36.0316 38.2915 36.4676 38.1495 36.8786C38.0075 37.2896 37.782 37.6667 37.4872 37.9863C37.1923 38.3059 36.8345 38.5609 36.4362 38.7354C36.0379 38.9099 35.6078 39.0001 35.173 39.0002H13.6491C13.2142 39.0001 12.7842 38.9099 12.3859 38.7354C11.9876 38.5609 11.6298 38.3059 11.3349 37.9863C11.0401 37.6667 10.8145 37.2896 10.6726 36.8786C10.5306 36.4676 10.4753 36.0316 10.5101 35.5982L11.7748 19.8482V19.8482Z" stroke="#333333" stroke-width="2" stroke-linecap="round" stroke-linejoin="round"/>
<path d="M30.7113 21.675V13.8C30.7113 12.1291 30.0476 10.5267 28.8661 9.34523C27.6846 8.16375 26.0822 7.5 24.4113 7.5C22.7405 7.5 21.138 8.16375 19.9566 9.34523C18.7751 10.5267 18.1113 12.1291 18.1113 13.8V21.675" stroke="#333333" stroke-width="2" stroke-linecap="round" stroke-linejoin="round"/>
</svg>
