<svg width="48" height="33" viewBox="0 0 48 33" fill="none" xmlns="http://www.w3.org/2000/svg">
<g clip-path="url(#clip0_933_14669)">
<path d="M45.5 1H2.5C1.39543 1 0.5 1.89543 0.5 3V30C0.5 31.1046 1.39543 32 2.5 32H45.5C46.6046 32 47.5 31.1046 47.5 30V3C47.5 1.89543 46.6046 1 45.5 1Z" fill="#FCFCFC" stroke="#CBCBCB" stroke-opacity="0.5"/>
<path fill-rule="evenodd" clip-rule="evenodd" d="M19.435 10.4996L14.382 22.4946H11.102L8.61802 12.9206C8.61802 12.4776 8.26402 12.0336 7.91002 11.8566C6.93502 11.4146 5.87002 11.0596 4.89502 10.8816L4.98502 10.4996H10.215C10.923 10.4996 11.545 11.0596 11.633 11.7676L12.963 18.6836L16.155 10.4996H19.435ZM32.201 18.5946C32.201 15.4026 27.857 15.2256 27.857 13.8956C27.857 13.4526 28.299 13.0086 29.187 12.9206C30.249 12.8326 31.314 13.0086 32.201 13.4526L32.732 10.8816C31.846 10.5266 30.782 10.3496 29.807 10.3496C26.792 10.3496 24.577 11.9456 24.577 14.3386C24.577 16.0236 26.083 16.9986 27.325 17.6196C28.565 18.2386 28.92 18.5946 28.92 19.1266C28.92 19.9236 27.945 20.2786 27.06 20.2786C25.994 20.2786 24.842 20.0126 23.867 19.5686L23.335 22.2286C24.398 22.6726 25.64 22.8496 26.792 22.8496C30.073 22.6726 32.202 21.0766 32.202 18.5946H32.201ZM40.268 22.4946H43.104L40.622 10.4996H37.963C37.343 10.4996 36.898 10.8816 36.633 11.4146L32.023 22.4946H35.303L35.924 20.7216H39.914L40.268 22.4946ZM36.81 18.2386L38.407 13.7186L39.381 18.2386H36.811H36.81ZM23.867 10.4996L21.297 22.4946H18.193L20.764 10.4996H23.867Z" fill="#1A2070"/>
</g>
<defs>
<clipPath id="clip0_933_14669">
<rect width="48" height="32" fill="white" transform="translate(0 0.5)"/>
</clipPath>
</defs>
</svg>
